# File created by Blade
# Date/Time:  Tue Sep 30 19:06:56 2014
#---------------------------------------------------------
:version 1.10
:name HOM
:units
  mass 1.0
  length 1.000000
  angle deg
:documentation
     Acclaim Skeleton File
:root
   axis xyz
   order TX TY TZ RX RY RZ
   position 0.000000 0.000000 0.000000
   orientation 0 0 0
:bonedata
   begin
      id 1
      name Spine_dum
      direction 0.000000 1.000000 0.000000
      length 7.508948
      axis 0.0 0.0 0.0 xyz
   end
   begin
      id 2
      name LeftUpLeg_dum
      direction 1.000000 0.000000 0.000000
      length 3.000560
      axis 0.0 0.0 0.0 xyz
   end
   begin
      id 3
      name RightUpLeg_dum
      direction -1.000000 0.000000 0.000000
      length 3.000560
      axis 0.0 0.0 0.0 xyz
   end
   begin
      id 4
      name Spine
      direction 0.000000 1.000000 0.000000
      length 0.000000
      axis 0.0 0.0 0.0 xyz
      dof rx ry rz
   end
   begin
      id 5
      name Spine_dum1
      direction 0.000000 1.000000 0.000000
      length 13.861154
      axis 0.0 0.0 0.0 xyz
   end
   begin
      id 6
      name Spine_dum2
      direction 0.000000 1.000000 0.000000
      length 8.204781
      axis 0.0 0.0 0.0 xyz
   end
   begin
      id 7
      name Spine_dum3
      direction 0.000000 1.000000 0.000000
      length 8.204781
      axis 0.0 0.0 0.0 xyz
   end
   begin
      id 8
      name Head
      direction 0.000000 1.000000 0.000000
      length 4.527550
      axis 0.0 0.0 0.0 xyz
      dof rx ry rz
   end
   begin
      id 9
      name LeftShoulder
      direction 1.000000 0.000000 0.000000
      length 6.635956
      axis 0.0 0.0 -90.0 xyz
      dof rx ry rz
   end
   begin
      id 10
      name LeftArm
      direction 1.000000 0.000000 0.000000
      length 10.274218
      axis 0.0 0.0 -90.0 xyz
      dof rx ry rz
   end
   begin
      id 11
      name LeftForeArm
      direction 1.000000 0.000000 0.000000
      length 8.522147
      axis 0.0 0.0 -90.0 xyz
      dof ry rz rx
   end
   begin
      id 12
      name LeftHand
      direction 0.000000 0.000000 0.000000
      length 0.000000
      axis 0.0 0.0 -90.0 xyz
      dof rx ry rz
   end
   begin
      id 13
      name LeftHand_dum1
      direction 0.000000 0.000000 0.000000
      length 0.000000
      axis 0.0 0.0 -90.0 xyz
   end
   begin
      id 14
      name LeftHand_dum2
      direction 1.000000 0.000000 0.000000
      length 3.937000
      axis 0.0 0.0 -90.0 xyz
   end
   begin
      id 15
      name LeftHandThumb1
      direction 0.000000 0.000000 1.000000
      length 3.937000
      axis 0.0 0.0 -90.0 xyz
      dof rx rz ry
   end
   begin
      id 16
      name RightShoulder
      direction -1.000000 0.000000 0.000000
      length 6.635956
      axis 0.0 0.0 90.0 xyz
      dof rx ry rz
   end
   begin
      id 17
      name RightArm
      direction -1.000000 0.000000 0.000000
      length 10.274218
      axis 0.0 0.0 90.0 xyz
      dof rx ry rz
   end
   begin
      id 18
      name RightForeArm
      direction -1.000000 0.000000 0.000000
      length 8.522147
      axis 0.0 0.0 90.0 xyz
      dof ry rz rx
   end
   begin
      id 19
      name RightHand
      direction 0.000000 0.000000 0.000000
      length 0.000000
      axis 0.0 0.0 90.0 xyz
      dof rx ry rz
   end
   begin
      id 20
      name RightHand_dum1
      direction 0.000000 0.000000 0.000000
      length 0.000000
      axis 0.0 0.0 90.0 xyz
   end
   begin
      id 21
      name RightHand_dum2
      direction -1.000000 0.000000 0.000000
      length 3.937000
      axis 0.0 0.0 90.0 xyz
   end
   begin
      id 22
      name RightHandThumb1
      direction 0.000000 0.000000 1.000000
      length 3.937000
      axis 0.0 0.0 90.0 xyz
      dof rx rz ry
   end
   begin
      id 23
      name LeftUpLeg
      direction 0.000000 -1.000000 0.000000
      length 16.490845
      axis 0.0 0.0 0.0 xyz
      dof rx ry rz
   end
   begin
      id 24
      name LeftLeg
      direction 0.000000 -1.000000 0.000000
      length 14.556576
      axis 0.0 0.0 0.0 xyz
      dof rx ry rz
   end
   begin
      id 25
      name LeftFoot
      direction 0.000000 -0.258819 0.965926
      length 4.831116
      axis 15.0 0.0 0.0 xyz
      dof rx ry rz
   end
   begin
      id 26
      name LeftToeBase
      direction 0.000000 0.000000 1.000000
      length 2.952750
      axis 0.0 0.0 0.0 xyz
      dof rx ry rz
   end
   begin
      id 27
      name RightUpLeg
      direction 0.000000 -1.000000 0.000000
      length 16.490845
      axis 0.0 0.0 0.0 xyz
      dof rx ry rz
   end
   begin
      id 28
      name RightLeg
      direction 0.000000 -1.000000 0.000000
      length 14.556576
      axis 0.0 0.0 0.0 xyz
      dof rx ry rz
   end
   begin
      id 29
      name RightFoot
      direction 0.000000 -0.258819 0.965926
      length 4.831116
      axis 15.0 0.0 0.0 xyz
      dof rx ry rz
   end
   begin
      id 30
      name RightToeBase
      direction 0.000000 0.000000 1.000000
      length 2.952750
      axis 0.0 0.0 0.0 xyz
      dof rx ry rz
   end
:hierarchy
   begin
      root Spine_dum LeftUpLeg_dum RightUpLeg_dum
      Spine_dum Spine
      LeftUpLeg_dum LeftUpLeg
      RightUpLeg_dum RightUpLeg
      Spine Spine_dum1 Spine_dum2 Spine_dum3
      Spine_dum1 Head
      Spine_dum2 LeftShoulder
      Spine_dum3 RightShoulder
      LeftShoulder LeftArm
      LeftArm LeftForeArm
      LeftForeArm LeftHand
      LeftHand LeftHand_dum1 LeftHand_dum2
      LeftHand_dum1 LeftHandThumb1
      RightShoulder RightArm
      RightArm RightForeArm
      RightForeArm RightHand
      RightHand RightHand_dum1 RightHand_dum2
      RightHand_dum1 RightHandThumb1
      LeftUpLeg LeftLeg
      LeftLeg LeftFoot
      LeftFoot LeftToeBase
      RightUpLeg RightLeg
      RightLeg RightFoot
      RightFoot RightToeBase
   end

# File created by Blade
# Date/Time:  Thu Sep 25 19:04:16 2014
# Frame Rate: 120.000 fps
#------------------------------------------------------
:FULLY-SPECIFIED
:DEGREES
74
root -3.109376 32.930340 -2.094240 11.908464 1.431823 -2.451061
Spine -11.906556 5.777464 0.933050
Head -9.215854 -0.725010 9.469278
LeftShoulder -14.387193 17.654575 25.921244
LeftArm 19.312148 -25.328218 -31.122910
LeftForeArm 11.594389 -0.000000 14.346240
LeftHand -25.659473 -0.000000 -8.009098
LeftHandThumb1 -26.253704 0.000000 33.147579
RightShoulder -20.100294 13.961060 -39.214003
RightArm -7.864937 6.576797 30.625683
RightForeArm -28.348088 -0.000000 14.616278
RightHand -8.173199 -0.000000 10.276949
RightHandThumb1 -24.326973 -0.000000 -32.862282
LeftUpLeg -7.778545 10.632288 7.862125
LeftLeg -0.011850 -0.000000 0.000000
LeftFoot -8.013884 2.614096 -21.297310
LeftToeBase 10.250658 -0.000000 -0.000000
RightUpLeg -9.775886 -6.484630 0.255903
RightLeg 3.219936 -0.000000 -0.000000
RightFoot -7.271441 -6.293158 3.023116
RightToeBase 0.692038 -0.000000 -0.000000
75
root -3.138231 32.929862 -2.098346 11.871337 1.366516 -2.468504
Spine -11.855752 5.816155 0.971291
Head -9.236630 -0.715948 9.441577
LeftShoulder -14.412962 17.721955 25.861048
LeftArm 19.366297 -25.361028 -31.153150
LeftForeArm 11.562283 -0.000000 14.320589
LeftHand -25.622084 -0.000000 -8.055520
LeftHandThumb1 -26.253704 0.000000 33.147579
RightShoulder -20.096519 13.918562 -39.205306
RightArm -7.816548 6.555877 30.640685
RightForeArm -28.322402 -0.000000 14.625544
RightHand -8.135008 -0.000000 10.243693
RightHandThumb1 -24.326973 -0.000000 -32.862282
LeftUpLeg -7.816271 10.836029 7.888829
LeftLeg 0.144043 -0.000000 -0.000000
LeftFoot -8.038171 2.561716 -21.282783
LeftToeBase 10.250036 -0.000000 -0.000000
RightUpLeg -9.813844 -6.375121 0.307644
RightLeg 3.348499 -0.000000 -0.000000
RightFoot -7.341565 -6.366942 2.937659
RightToeBase 0.691820 -0.000000 -0.000000
76
root -3.167001 32.928779 -2.102943 11.840731 1.322891 -2.487624
Spine -11.815409 5.836017 1.031911
Head -9.247205 -0.759131 9.376510
LeftShoulder -14.393387 17.665889 25.867635
LeftArm 19.315598 -25.304233 -31.212504
LeftForeArm 11.647467 -0.000000 14.300185
LeftHand -25.611787 -0.000000 -8.036370
LeftHandThumb1 -26.253704 0.000000 33.147579
RightShoulder -20.079918 13.936551 -39.215394
RightArm -7.809402 6.515528 30.623567
RightForeArm -28.308155 -0.000000 14.635342
RightHand -8.138937 -0.000000 10.196561
RightHandThumb1 -24.326973 -0.000000 -32.862282
LeftUpLeg -7.818916 10.846783 7.960880
LeftLeg 0.218514 -0.000000 -0.000000
LeftFoot -8.064538 2.590783 -21.342190
LeftToeBase 10.256290 -0.000000 -0.000000
RightUpLeg -9.848064 -6.307747 0.364231
RightLeg 3.456925 -0.000000 -0.000000
RightFoot -7.406714 -6.380283 2.856012
RightToeBase 0.709611 -0.000000 -0.000000
77
root -3.197795 32.927726 -2.106618 11.810520 1.276969 -2.522992
Spine -11.790953 5.875981 1.100564
Head -9.210135 -0.737367 9.328415
LeftShoulder -14.343161 17.608422 25.901509
LeftArm 19.240031 -25.199512 -31.252870
LeftForeArm 11.577487 -0.000000 14.308048
LeftHand -25.624951 -0.000000 -8.075667
LeftHandThumb1 -26.253704 0.000000 33.147579
RightShoulder -20.085552 13.951810 -39.256727
RightArm -7.778172 6.450825 30.633015
RightForeArm -28.304148 -0.000000 14.591691
RightHand -8.122999 -0.000000 10.168674
RightHandThumb1 -24.326973 -0.000000 -32.862282
LeftUpLeg -7.819248 10.847712 8.054639
LeftLeg 0.294638 -0.000000 -0.000000
LeftFoot -8.106699 2.627653 -21.420669
LeftToeBase 10.277563 -0.000000 -0.000000
RightUpLeg -9.873931 -6.260286 0.442936
RightLeg 3.545579 -0.000000 -0.000000
RightFoot -7.444005 -6.361110 2.808855
RightToeBase 0.644639 -0.000000 -0.000000
78
root -3.229576 32.926570 -2.108520 11.764855 1.237584 -2.553676
Spine -11.754129 5.887613 1.174573
Head -9.183611 -0.705540 9.292545
LeftShoulder -14.354355 17.657517 25.842362
LeftArm 19.300683 -25.120979 -31.216626
LeftForeArm 11.476132 -0.000000 14.165682
LeftHand -25.522516 -0.000000 -8.102942
LeftHandThumb1 -26.253704 0.000000 33.147579
RightShoulder -20.070638 13.912151 -39.264562
RightArm -7.712803 6.487131 30.647330
RightForeArm -28.304419 -0.000000 14.579239
RightHand -8.197083 -0.000000 10.171960
RightHandThumb1 -24.326973 -0.000000 -32.862282
LeftUpLeg -7.811066 10.825684 8.151950
LeftLeg 0.390904 -0.000000 -0.000000
LeftFoot -8.150509 2.677685 -21.481529
LeftToeBase 10.256625 -0.000000 -0.000000
RightUpLeg -9.868121 -6.192300 0.515271
RightLeg 3.610867 -0.000000 -0.000000
RightFoot -7.478814 -6.379354 2.729500
RightToeBase 0.670772 -0.000000 -0.000000
79
root -3.261284 32.925406 -2.111563 11.728958 1.184558 -2.568531
Spine -11.709543 5.902356 1.242573
Head -9.195660 -0.729505 9.234712
LeftShoulder -14.314294 17.572649 25.872759
LeftArm 19.137377 -25.047674 -31.270747
LeftForeArm 11.472334 -0.000000 14.309593
LeftHand -25.616945 -0.000000 -8.148866
LeftHandThumb1 -26.253704 0.000000 33.147579
RightShoulder -20.069655 13.920857 -39.266771
RightArm -7.660052 6.405379 30.628859
RightForeArm -28.122409 -0.000000 14.579415
RightHand -8.232466 -0.000000 10.097042
RightHandThumb1 -24.326973 -0.000000 -32.862282
LeftUpLeg -7.814280 10.838533 8.227223
LeftLeg 0.486291 -0.000000 -0.000000
LeftFoot -8.124294 2.687650 -21.693742
LeftToeBase 9.996184 -0.000000 -0.000000
RightUpLeg -9.883103 -6.076453 0.566090
RightLeg 3.695869 -0.000000 -0.000000
RightFoot -7.529381 -6.435326 2.704895
RightToeBase 0.615962 -0.000000 -0.000000
80
root -3.293727 32.923938 -2.114542 11.698608 1.128349 -2.588764
Spine -11.687637 5.948683 1.299863
Head -9.163398 -0.747468 9.168477
LeftShoulder -14.274686 17.537786 25.852517
LeftArm 19.136670 -24.870948 -31.210858
LeftForeArm 11.311387 -0.000000 14.142230
LeftHand -25.593355 -0.000000 -7.923598
LeftHandThumb1 -26.253704 0.000000 33.147579
RightShoulder -20.050408 13.911759 -39.282425
RightArm -7.673089 6.413309 30.604049
RightForeArm -28.191009 0.000000 14.607241
RightHand -8.232206 0.000000 10.181022
RightHandThumb1 -24.326973 -0.000000 -32.862282
LeftUpLeg -7.811086 10.833333 8.306323
LeftLeg 0.564244 -0.000000 -0.000000
LeftFoot -8.207925 2.757904 -21.610046
LeftToeBase 10.218743 -0.000000 -0.000000
RightUpLeg -9.895576 -5.960153 0.623213
RightLeg 3.765881 -0.000000 -0.000000
RightFoot -7.581918 -6.491311 2.631526
RightToeBase 0.660738 -0.000000 -0.000000
81
root -3.331389 32.923916 -2.115676 11.661403 1.069525 -2.613978
Spine -11.661334 5.952769 1.361370
Head -9.110359 -0.680380 9.139420
LeftShoulder -14.349680 17.675221 25.770023
LeftArm 19.230476 -24.984891 -31.267446
LeftForeArm 11.334126 -0.000000 14.215744
LeftHand -25.637623 -0.000000 -8.068589
LeftHandThumb1 -26.253704 0.000000 33.147579
RightShoulder -20.043101 13.918047 -39.265500
RightArm -7.611735 6.365913 30.591356
RightForeArm -28.168294 -0.000000 14.591175
RightHand -8.131357 -0.000000 10.070847
RightHandThumb1 -24.326973 -0.000000 -32.862282
LeftUpLeg -7.854775 11.043423 8.362160
LeftLeg 0.743400 -0.000000 -0.000000
LeftFoot -8.207550 2.670148 -21.574970
LeftToeBase 10.190442 -0.000000 -0.000000
RightUpLeg -9.883644 -5.818255 0.689808
RightLeg 3.804776 -0.000000 -0.000000
RightFoot -7.605151 -6.556216 2.578044
RightToeBase 0.646134 -0.000000 -0.000000
82
root -3.366621 32.922221 -2.116891 11.624540 1.019757 -2.637721
Spine -11.637225 5.975613 1.445961
Head -9.071239 -0.701224 9.065639
LeftShoulder -14.318799 17.609359 25.774753
LeftArm 19.153358 -24.982445 -31.326562
LeftForeArm 11.431386 -0.000000 14.258216
LeftHand -25.603249 -0.000000 -8.171909
LeftHandThumb1 -26.253704 0.000000 33.147579
RightShoulder -20.037465 13.965681 -39.331361
RightArm -7.618720 6.257135 30.600758
RightForeArm -28.011396 -0.000000 14.600064
RightHand -8.136629 0.000000 10.038455
RightHandThumb1 -24.326973 -0.000000 -32.862282
LeftUpLeg -7.839314 11.012814 8.456583
LeftLeg 0.815037 -0.000000 -0.000000
LeftFoot -8.254276 2.740788 -21.622349
LeftToeBase 10.202325 -0.000000 -0.000000
RightUpLeg -9.867761 -5.719588 0.758443
RightLeg 3.833043 -0.000000 -0.000000
RightFoot -7.630672 -6.604666 2.497029
RightToeBase 0.641302 -0.000000 -0.000000
83
root -3.403031 32.920396 -2.116849 11.585495 0.973193 -2.671442
Spine -11.616692 6.016402 1.529527
Head -9.029084 -0.697726 8.991306
LeftShoulder -14.263145 17.552159 25.789929
LeftArm 19.060899 -24.876986 -31.326029
LeftForeArm 11.373215 -0.000000 14.301454
LeftHand -25.627505 -0.000000 -8.179002
LeftHandThumb1 -26.253704 0.000000 33.147579
RightShoulder -20.035198 13.982125 -39.362128
RightArm -7.630841 6.288103 30.576053
RightForeArm -28.204078 -0.000000 14.611618
RightHand -8.059842 -0.000000 10.110358
RightHandThumb1 -24.326973 -0.000000 -32.862282
LeftUpLeg -7.825118 11.018467 8.559752
LeftLeg 0.894913 -0.000000 -0.000000
LeftFoot -8.274609 2.794941 -21.679624
LeftToeBase 10.100044 -0.000000 -0.000000
RightUpLeg -9.838758 -5.652571 0.839381
RightLeg 3.841356 -0.000000 -0.000000
RightFoot -7.644963 -6.598693 2.472193
RightToeBase 0.595447 -0.000000 -0.000000
84
root -3.442870 32.918961 -2.115526 11.533666 0.923369 -2.705368
Spine -11.589003 6.025328 1.615547
Head -8.956271 -0.630869 8.949341
LeftShoulder -14.337550 17.725173 25.693369
LeftArm 19.252563 -24.963034 -31.377110
LeftForeArm 11.362230 -0.000000 14.228074
LeftHand -25.600067 -0.000000 -8.089409
LeftHandThumb1 -26.253704 0.000000 33.147579
RightShoulder -20.025586 13.944554 -39.344619
RightArm -7.540202 6.197669 30.560431
RightForeArm -28.086879 -0.000000 14.583039
RightHand -8.111711 -0.000000 10.061619
RightHandThumb1 -24.326973 -0.000000 -32.862282
LeftUpLeg -7.794331 11.023347 8.673030
LeftLeg 0.975219 -0.000000 -0.000000
LeftFoot -8.312990 2.817406 -21.732570
LeftToeBase 10.212721 -0.000000 -0.000000
RightUpLeg -9.789902 -5.555347 0.922521
RightLeg 3.846061 -0.000000 -0.000000
RightFoot -7.665024 -6.638379 2.405332
RightToeBase 0.585820 -0.000000 -0.000000
